# xmcd
#
# Track frame offsets: 
#        150
#        19768
#        37484
#        53367
#        72364
#
# Disc length: 1201 seconds
#
# Revision: 0
# Processed by: cddbd v1.5.2PL0 Copyright (c) Steve Scherf et al.
# Submitted via: ExactAudioCopy v0.99pb5
#
DISCID=3f04af05
DTITLE=Mel Edmondson - Wherever The Road Will Lead...
DYEAR=2005
DGENRE=Blues
TTITLE0=Don't let me be the last one to know
TTITLE1=You gotta watch me
TTITLE2=Fire in the rain
TTITLE3=Mother earth keeps on turning
TTITLE4=Cast me an angel
EXTD=
EXTT0=
EXTT1=
EXTT2=
EXTT3=
EXTT4=
PLAYORDER=
